<svg xmlns="http://www.w3.org/2000/svg" xmlns:xlink="http://www.w3.org/1999/xlink" width="300" zoomAndPan="magnify" viewBox="0 0 224.87999 225" height="300" preserveAspectRatio="xMidYMid meet" version="1.0"><defs><clipPath id="0ab2faa04f"><path d="M 24.359375 6.21875 L 200.515625 6.21875 L 200.515625 219 L 24.359375 219 Z M 24.359375 6.21875 " clip-rule="nonzero"/></clipPath><clipPath id="26567afc85"><path d="M 112 6.21875 L 200.515625 6.21875 L 200.515625 219 L 112 219 Z M 112 6.21875 " clip-rule="nonzero"/></clipPath></defs><g clip-path="url(#0ab2faa04f)"><path fill="#235e94" d="M 112.4375 6.21875 L 24.480469 35.535156 L 24.480469 93.257812 C 24.480469 143.246094 52.695312 188.914062 97.40625 211.261719 L 112.4375 218.777344 L 127.453125 211.261719 C 172.175781 188.914062 200.390625 143.246094 200.390625 93.257812 L 200.390625 35.535156 L 112.4375 6.21875 " fill-opacity="1" fill-rule="nonzero"/></g><g clip-path="url(#26567afc85)"><path fill="#61a4d7" d="M 112.4375 6.21875 L 112.4375 218.777344 L 127.453125 211.261719 C 172.175781 188.914062 200.390625 143.246094 200.390625 93.257812 L 200.390625 35.535156 L 112.4375 6.21875 " fill-opacity="1" fill-rule="nonzero"/></g><path fill="#063662" d="M 112.4375 29.378906 L 46.46875 51.367188 L 46.46875 93.257812 C 46.46875 135.1875 69.746094 172.851562 107.238281 191.589844 L 112.4375 194.179688 L 117.632812 191.589844 C 155.140625 172.851562 178.402344 135.1875 178.402344 93.257812 L 178.402344 51.367188 L 112.4375 29.378906 " fill-opacity="1" fill-rule="nonzero"/><path fill="#235e94" d="M 112.4375 29.378906 L 112.4375 194.179688 L 117.632812 191.589844 C 155.140625 172.851562 178.402344 135.1875 178.402344 93.257812 L 178.402344 51.367188 L 112.4375 29.378906 " fill-opacity="1" fill-rule="nonzero"/><path fill="#d9ecfb" d="M 159.078125 87.84375 L 148.710938 77.480469 L 105.105469 121.085938 L 84.378906 100.355469 L 74.011719 110.722656 L 105.105469 141.816406 L 159.078125 87.84375 " fill-opacity="1" fill-rule="nonzero"/></svg>