<svg xmlns="http://www.w3.org/2000/svg" xmlns:xlink="http://www.w3.org/1999/xlink" width="300" zoomAndPan="magnify" viewBox="0 0 224.87999 225" height="300" preserveAspectRatio="xMidYMid meet" version="1.0"><path fill="#e14610" d="M 92.644531 107.589844 C 91.484375 107.894531 90.304688 108.109375 89.109375 108.234375 C 87.914062 108.359375 86.714844 108.394531 85.515625 108.335938 C 84.3125 108.277344 83.125 108.125 81.945312 107.882812 C 80.769531 107.640625 79.617188 107.3125 78.492188 106.890625 C 77.363281 106.472656 76.277344 105.96875 75.226562 105.382812 C 74.175781 104.796875 73.179688 104.132812 72.230469 103.394531 C 71.285156 102.65625 70.398438 101.847656 69.574219 100.972656 C 68.753906 100.09375 68 99.160156 67.320312 98.171875 C 67.066406 97.796875 66.75 97.484375 66.375 97.234375 C 66 96.980469 65.59375 96.808594 65.152344 96.714844 C 64.710938 96.617188 64.265625 96.609375 63.820312 96.6875 C 63.375 96.761719 62.960938 96.917969 62.574219 97.15625 C 62.1875 97.394531 61.863281 97.691406 61.59375 98.054688 C 61.324219 98.417969 61.128906 98.816406 61.015625 99.253906 C 60.898438 99.691406 60.871094 100.132812 60.925781 100.582031 C 60.980469 101.03125 61.117188 101.453125 61.335938 101.847656 C 62.90625 104.214844 64.777344 106.3125 66.949219 108.140625 C 69.121094 109.96875 71.503906 111.457031 74.101562 112.605469 C 66.695312 131.148438 80.144531 150.589844 80.757812 151.425781 C 81.03125 151.792969 81.363281 152.097656 81.757812 152.332031 C 82.148438 152.570312 82.570312 152.726562 83.023438 152.796875 C 83.476562 152.867188 83.925781 152.851562 84.371094 152.75 C 84.816406 152.644531 85.226562 152.460938 85.601562 152.199219 C 85.976562 151.933594 86.289062 151.609375 86.535156 151.222656 C 86.78125 150.839844 86.949219 150.421875 87.03125 149.96875 C 87.117188 149.519531 87.113281 149.070312 87.023438 148.621094 C 86.929688 148.171875 86.757812 147.757812 86.503906 147.375 C 86.378906 147.191406 74.488281 129.882812 80.875 114.730469 C 82.773438 115.113281 84.691406 115.3125 86.628906 115.328125 C 89.191406 115.320312 91.722656 115.03125 94.21875 114.453125 C 94.675781 114.351562 95.09375 114.164062 95.472656 113.894531 C 95.855469 113.625 96.167969 113.292969 96.417969 112.898438 C 96.664062 112.503906 96.828125 112.078125 96.90625 111.617188 C 96.988281 111.15625 96.972656 110.699219 96.871094 110.246094 C 96.769531 109.792969 96.582031 109.375 96.3125 108.992188 C 96.042969 108.613281 95.710938 108.296875 95.320312 108.046875 C 94.925781 107.796875 94.496094 107.632812 94.039062 107.554688 C 93.578125 107.476562 93.121094 107.488281 92.664062 107.589844 Z M 92.644531 107.589844 " fill-opacity="1" fill-rule="nonzero"/><path fill="#e14610" d="M 83.339844 169.167969 C 68.382812 180.605469 52.703125 166.957031 52.042969 166.355469 C 51.695312 166.046875 51.300781 165.820312 50.863281 165.667969 C 50.425781 165.519531 49.972656 165.457031 49.511719 165.484375 C 49.046875 165.511719 48.609375 165.628906 48.191406 165.828125 C 47.773438 166.03125 47.410156 166.304688 47.101562 166.648438 C 46.792969 166.996094 46.558594 167.386719 46.40625 167.824219 C 46.25 168.261719 46.183594 168.710938 46.207031 169.171875 C 46.230469 169.636719 46.34375 170.078125 46.539062 170.496094 C 46.738281 170.917969 47.007812 171.28125 47.351562 171.59375 C 48.941406 172.992188 50.640625 174.242188 52.449219 175.34375 C 54.253906 176.445312 56.144531 177.386719 58.113281 178.160156 C 60.085938 178.9375 62.105469 179.539062 64.179688 179.964844 C 66.253906 180.390625 68.347656 180.632812 70.464844 180.695312 C 73.574219 180.695312 76.597656 180.183594 79.535156 179.164062 C 82.472656 178.144531 85.160156 176.671875 87.601562 174.746094 C 87.988281 174.46875 88.300781 174.128906 88.550781 173.722656 C 88.796875 173.316406 88.953125 172.878906 89.023438 172.410156 C 89.09375 171.941406 89.070312 171.476562 88.953125 171.015625 C 88.832031 170.554688 88.628906 170.136719 88.34375 169.757812 C 88.054688 169.382812 87.707031 169.074219 87.292969 168.839844 C 86.882812 168.605469 86.441406 168.457031 85.96875 168.398438 C 85.496094 168.34375 85.035156 168.378906 84.578125 168.511719 C 84.121094 168.640625 83.707031 168.855469 83.339844 169.152344 Z M 83.339844 169.167969 " fill-opacity="1" fill-rule="nonzero"/><path fill="#e14610" d="M 201.550781 192.738281 C 199.691406 192.765625 197.949219 193.234375 196.332031 194.144531 L 174.523438 172.339844 C 173.835938 171.652344 173.003906 171.3125 172.035156 171.3125 L 123.671875 171.3125 L 123.671875 155.058594 L 188.480469 155.058594 C 188.617188 155.46875 188.777344 155.867188 188.964844 156.261719 C 189.148438 156.652344 189.355469 157.03125 189.585938 157.398438 C 189.816406 157.765625 190.066406 158.121094 190.335938 158.457031 C 190.609375 158.796875 190.898438 159.117188 191.207031 159.421875 C 191.515625 159.722656 191.839844 160.007812 192.183594 160.273438 C 192.527344 160.539062 192.882812 160.785156 193.253906 161.007812 C 193.625 161.234375 194.007812 161.433594 194.402344 161.613281 C 194.796875 161.792969 195.199219 161.945312 195.613281 162.078125 C 196.027344 162.210938 196.445312 162.316406 196.871094 162.398438 C 197.296875 162.480469 197.726562 162.535156 198.15625 162.566406 C 198.589844 162.601562 199.023438 162.605469 199.453125 162.585938 C 199.886719 162.566406 200.316406 162.523438 200.746094 162.453125 C 201.171875 162.382812 201.59375 162.289062 202.011719 162.167969 C 202.429688 162.050781 202.835938 161.90625 203.234375 161.738281 C 203.636719 161.570312 204.023438 161.382812 204.402344 161.167969 C 204.777344 160.957031 205.140625 160.722656 205.492188 160.464844 C 205.839844 160.210938 206.175781 159.933594 206.492188 159.640625 C 206.808594 159.34375 207.109375 159.03125 207.390625 158.699219 C 207.667969 158.371094 207.929688 158.027344 208.171875 157.664062 C 208.410156 157.304688 208.628906 156.929688 208.824219 156.542969 C 209.019531 156.15625 209.191406 155.761719 209.34375 155.355469 C 209.492188 154.949219 209.617188 154.535156 209.71875 154.113281 C 209.820312 153.691406 209.894531 153.265625 209.945312 152.835938 C 209.996094 152.40625 210.023438 151.972656 210.023438 151.539062 C 210.023438 151.105469 209.996094 150.675781 209.945312 150.246094 C 209.894531 149.8125 209.820312 149.386719 209.71875 148.964844 C 209.617188 148.546875 209.492188 148.132812 209.34375 147.726562 C 209.191406 147.316406 209.019531 146.921875 208.824219 146.535156 C 208.628906 146.148438 208.410156 145.773438 208.171875 145.414062 C 207.929688 145.054688 207.667969 144.707031 207.390625 144.378906 C 207.109375 144.046875 206.808594 143.734375 206.492188 143.441406 C 206.175781 143.144531 205.839844 142.871094 205.492188 142.613281 C 205.140625 142.359375 204.777344 142.125 204.402344 141.910156 C 204.023438 141.699219 203.636719 141.507812 203.234375 141.339844 C 202.835938 141.171875 202.429688 141.03125 202.011719 140.910156 C 201.59375 140.789062 201.171875 140.695312 200.746094 140.625 C 200.316406 140.554688 199.886719 140.511719 199.453125 140.492188 C 199.023438 140.472656 198.589844 140.480469 198.15625 140.511719 C 197.726562 140.542969 197.296875 140.597656 196.871094 140.679688 C 196.445312 140.761719 196.027344 140.871094 195.613281 141 C 195.199219 141.132812 194.796875 141.289062 194.402344 141.464844 C 194.007812 141.644531 193.625 141.847656 193.253906 142.070312 C 192.882812 142.292969 192.527344 142.539062 192.183594 142.804688 C 191.839844 143.070312 191.515625 143.355469 191.207031 143.660156 C 190.898438 143.960938 190.609375 144.285156 190.335938 144.621094 C 190.066406 144.960938 189.816406 145.3125 189.585938 145.679688 C 189.355469 146.046875 189.148438 146.425781 188.964844 146.820312 C 188.777344 147.210938 188.617188 147.613281 188.480469 148.023438 L 123.671875 148.023438 L 123.671875 106.871094 L 170.570312 106.871094 L 181.460938 117.753906 C 180.707031 119.261719 180.328125 120.859375 180.320312 122.542969 C 180.324219 123.269531 180.398438 123.988281 180.539062 124.699219 C 180.683594 125.410156 180.898438 126.101562 181.175781 126.769531 C 181.457031 127.4375 181.800781 128.074219 182.203125 128.675781 C 182.609375 129.277344 183.070312 129.835938 183.585938 130.347656 C 184.097656 130.859375 184.660156 131.316406 185.261719 131.714844 C 185.867188 132.117188 186.507812 132.457031 187.175781 132.730469 C 187.847656 133.007812 188.539062 133.214844 189.253906 133.355469 C 189.964844 133.492188 190.683594 133.5625 191.410156 133.558594 C 192.132812 133.558594 192.851562 133.484375 193.5625 133.34375 C 194.273438 133.199219 194.964844 132.988281 195.636719 132.707031 C 196.304688 132.429688 196.941406 132.085938 197.542969 131.683594 C 198.144531 131.277344 198.703125 130.816406 199.214844 130.304688 C 199.726562 129.789062 200.183594 129.230469 200.585938 128.625 C 200.988281 128.023438 201.328125 127.382812 201.601562 126.714844 C 201.878906 126.042969 202.085938 125.351562 202.226562 124.640625 C 202.367188 123.925781 202.4375 123.207031 202.4375 122.484375 C 202.433594 121.757812 202.363281 121.039062 202.21875 120.328125 C 202.078125 119.617188 201.867188 118.925781 201.589844 118.253906 C 201.308594 117.585938 200.96875 116.949219 200.5625 116.347656 C 200.160156 115.742188 199.703125 115.1875 199.1875 114.675781 C 198.675781 114.160156 198.117188 113.703125 197.511719 113.300781 C 196.910156 112.898438 196.269531 112.558594 195.601562 112.28125 C 194.929688 112.003906 194.238281 111.796875 193.527344 111.65625 C 192.816406 111.515625 192.097656 111.445312 191.371094 111.445312 C 189.609375 111.453125 187.945312 111.871094 186.382812 112.6875 L 174.515625 100.816406 C 173.828125 100.128906 173 99.785156 172.027344 99.789062 L 123.671875 99.789062 L 123.671875 82.203125 L 178.539062 82.203125 C 178.679688 82.613281 178.839844 83.015625 179.023438 83.40625 C 179.210938 83.796875 179.417969 84.175781 179.644531 84.542969 C 179.875 84.910156 180.125 85.261719 180.398438 85.601562 C 180.667969 85.9375 180.957031 86.257812 181.265625 86.5625 C 181.574219 86.867188 181.898438 87.152344 182.242188 87.417969 C 182.585938 87.683594 182.941406 87.925781 183.3125 88.148438 C 183.683594 88.375 184.066406 88.574219 184.460938 88.753906 C 184.855469 88.929688 185.257812 89.085938 185.671875 89.21875 C 186.082031 89.347656 186.5 89.457031 186.925781 89.535156 C 187.351562 89.617188 187.78125 89.675781 188.210938 89.707031 C 188.644531 89.738281 189.078125 89.746094 189.507812 89.726562 C 189.941406 89.707031 190.371094 89.660156 190.796875 89.589844 C 191.226562 89.523438 191.648438 89.425781 192.0625 89.308594 C 192.480469 89.1875 192.886719 89.046875 193.289062 88.878906 C 193.6875 88.710938 194.074219 88.519531 194.453125 88.308594 C 194.828125 88.09375 195.191406 87.859375 195.542969 87.605469 C 195.890625 87.347656 196.222656 87.074219 196.542969 86.777344 C 196.859375 86.484375 197.15625 86.171875 197.4375 85.84375 C 197.71875 85.511719 197.976562 85.167969 198.21875 84.804688 C 198.457031 84.445312 198.675781 84.074219 198.871094 83.6875 C 199.066406 83.300781 199.238281 82.902344 199.390625 82.496094 C 199.539062 82.089844 199.664062 81.675781 199.765625 81.257812 C 199.863281 80.835938 199.941406 80.410156 199.992188 79.980469 C 200.042969 79.550781 200.066406 79.117188 200.066406 78.683594 C 200.066406 78.253906 200.042969 77.820312 199.992188 77.390625 C 199.941406 76.960938 199.863281 76.535156 199.765625 76.113281 C 199.664062 75.691406 199.539062 75.28125 199.390625 74.875 C 199.238281 74.46875 199.066406 74.070312 198.871094 73.683594 C 198.675781 73.296875 198.457031 72.925781 198.21875 72.566406 C 197.976562 72.203125 197.71875 71.859375 197.4375 71.527344 C 197.15625 71.199219 196.859375 70.886719 196.542969 70.59375 C 196.222656 70.296875 195.890625 70.023438 195.542969 69.765625 C 195.191406 69.511719 194.828125 69.277344 194.453125 69.0625 C 194.074219 68.851562 193.6875 68.660156 193.289062 68.492188 C 192.886719 68.324219 192.480469 68.183594 192.0625 68.0625 C 191.648438 67.945312 191.226562 67.847656 190.796875 67.777344 C 190.371094 67.710938 189.941406 67.664062 189.507812 67.644531 C 189.078125 67.625 188.644531 67.632812 188.210938 67.664062 C 187.78125 67.695312 187.351562 67.753906 186.925781 67.835938 C 186.5 67.914062 186.082031 68.023438 185.671875 68.152344 C 185.257812 68.285156 184.855469 68.441406 184.460938 68.617188 C 184.066406 68.796875 183.683594 68.996094 183.3125 69.222656 C 182.941406 69.445312 182.585938 69.6875 182.242188 69.953125 C 181.898438 70.21875 181.574219 70.503906 181.265625 70.808594 C 180.957031 71.113281 180.667969 71.433594 180.398438 71.769531 C 180.125 72.109375 179.875 72.460938 179.644531 72.828125 C 179.417969 73.195312 179.210938 73.574219 179.023438 73.964844 C 178.839844 74.355469 178.679688 74.757812 178.539062 75.167969 L 123.671875 75.167969 L 123.671875 52.054688 L 159.597656 52.054688 C 160.566406 52.050781 161.394531 51.707031 162.082031 51.019531 L 178.914062 34.1875 C 180.457031 34.980469 182.101562 35.382812 183.835938 35.394531 C 184.5625 35.398438 185.28125 35.328125 185.996094 35.183594 C 186.707031 35.042969 187.398438 34.835938 188.070312 34.558594 C 188.742188 34.28125 189.378906 33.9375 189.984375 33.535156 C 190.585938 33.132812 191.144531 32.675781 191.660156 32.160156 C 192.171875 31.648438 192.632812 31.089844 193.035156 30.488281 C 193.4375 29.882812 193.78125 29.246094 194.058594 28.574219 C 194.335938 27.90625 194.546875 27.210938 194.6875 26.5 C 194.832031 25.789062 194.902344 25.070312 194.902344 24.34375 C 194.902344 23.617188 194.832031 22.898438 194.691406 22.183594 C 194.550781 21.472656 194.339844 20.78125 194.0625 20.109375 C 193.785156 19.441406 193.445312 18.800781 193.039062 18.199219 C 192.636719 17.59375 192.179688 17.035156 191.667969 16.523438 C 191.152344 16.007812 190.59375 15.550781 189.992188 15.144531 C 189.386719 14.742188 188.75 14.402344 188.078125 14.125 C 187.40625 13.84375 186.714844 13.636719 186.003906 13.492188 C 185.292969 13.351562 184.574219 13.28125 183.847656 13.28125 C 183.121094 13.28125 182.402344 13.351562 181.6875 13.492188 C 180.976562 13.632812 180.285156 13.84375 179.613281 14.121094 C 178.945312 14.398438 178.304688 14.738281 177.703125 15.144531 C 177.097656 15.546875 176.539062 16.003906 176.027344 16.519531 C 175.511719 17.03125 175.054688 17.589844 174.652344 18.195312 C 174.246094 18.796875 173.90625 19.433594 173.628906 20.105469 C 173.351562 20.777344 173.140625 21.46875 173 22.179688 C 172.855469 22.894531 172.785156 23.613281 172.785156 24.339844 C 172.796875 26.050781 173.1875 27.671875 173.960938 29.199219 L 158.140625 45.019531 L 123.671875 45.019531 L 123.671875 21.804688 C 123.671875 21.269531 123.558594 20.757812 123.324219 20.273438 C 123.089844 19.792969 122.765625 19.382812 122.34375 19.046875 C 120.171875 17.425781 117.859375 16.035156 115.40625 14.875 C 112.957031 13.714844 110.414062 12.8125 107.78125 12.160156 C 105.148438 11.511719 102.476562 11.128906 99.769531 11.015625 C 97.058594 10.898438 94.367188 11.054688 91.6875 11.480469 C 86.429688 12.683594 81.398438 14.507812 76.59375 16.953125 C 71.785156 19.398438 67.347656 22.390625 63.277344 25.929688 C 60.449219 26.457031 57.777344 27.414062 55.257812 28.804688 C 53.859375 29.464844 52.546875 30.261719 51.320312 31.207031 C 50.097656 32.148438 48.984375 33.210938 47.992188 34.394531 C 46.996094 35.574219 46.140625 36.851562 45.421875 38.21875 C 44.703125 39.589844 44.136719 41.015625 43.726562 42.507812 C 43.277344 44.65625 43.15625 46.820312 43.375 49.003906 C 43.589844 51.1875 44.128906 53.285156 44.996094 55.304688 C 44.4375 55.445312 43.933594 55.523438 43.363281 55.683594 C 41.269531 56.085938 39.25 56.722656 37.300781 57.589844 C 35.355469 58.457031 33.53125 59.535156 31.832031 60.824219 C 30.132812 62.113281 28.601562 63.578125 27.242188 65.21875 C 25.882812 66.859375 24.722656 68.632812 23.773438 70.539062 C 22.695312 73.410156 22.15625 76.375 22.15625 79.441406 C 22.15625 82.507812 22.695312 85.472656 23.773438 88.34375 C 19.128906 90.707031 12.515625 96.863281 13.21875 112.632812 C 13.296875 114.925781 13.730469 117.148438 14.515625 119.300781 C 15.304688 121.453125 16.40625 123.429688 17.828125 125.230469 C 16.523438 126.8125 15.410156 128.523438 14.492188 130.359375 C 13.574219 132.195312 12.875 134.109375 12.390625 136.105469 C 11.910156 138.101562 11.660156 140.125 11.636719 142.175781 C 11.613281 144.230469 11.824219 146.257812 12.265625 148.261719 C 12.980469 150.230469 13.882812 152.109375 14.980469 153.894531 C 16.074219 155.679688 17.335938 157.335938 18.769531 158.867188 C 20.199219 160.398438 21.769531 161.769531 23.476562 162.980469 C 25.183594 164.191406 26.996094 165.21875 28.914062 166.066406 C 28.550781 167.996094 28.375 169.945312 28.390625 171.910156 C 28.40625 173.875 28.609375 175.820312 29.003906 177.746094 C 29.398438 179.671875 29.976562 181.539062 30.734375 183.351562 C 31.492188 185.164062 32.421875 186.886719 33.515625 188.519531 C 35 190.402344 36.644531 192.136719 38.445312 193.726562 C 40.242188 195.3125 42.171875 196.722656 44.230469 197.957031 C 46.285156 199.195312 48.4375 200.234375 50.683594 201.078125 C 52.929688 201.925781 55.230469 202.5625 57.59375 202.988281 C 59.703125 204.769531 61.949219 206.367188 64.320312 207.78125 C 66.695312 209.191406 69.167969 210.40625 71.738281 211.414062 C 74.3125 212.421875 76.949219 213.214844 79.648438 213.792969 C 82.351562 214.371094 85.082031 214.726562 87.839844 214.855469 C 90.351562 214.855469 92.835938 214.589844 95.289062 214.054688 C 98.246094 213.222656 101.09375 212.109375 103.828125 210.710938 C 106.5625 209.3125 109.132812 207.660156 111.539062 205.746094 C 113.941406 203.835938 116.132812 201.707031 118.113281 199.355469 C 120.089844 197.007812 121.820312 194.484375 123.292969 191.789062 C 123.558594 191.277344 123.691406 190.734375 123.695312 190.15625 L 123.695312 178.269531 L 170.59375 178.269531 L 191.503906 199.230469 C 191.34375 199.589844 191.199219 199.957031 191.078125 200.332031 C 190.953125 200.707031 190.851562 201.085938 190.769531 201.472656 C 190.6875 201.859375 190.625 202.246094 190.585938 202.640625 C 190.542969 203.03125 190.523438 203.425781 190.527344 203.820312 C 190.527344 204.210938 190.550781 204.605469 190.59375 204.996094 C 190.636719 205.390625 190.703125 205.777344 190.785156 206.164062 C 190.871094 206.546875 190.976562 206.925781 191.101562 207.300781 C 191.230469 207.671875 191.375 208.039062 191.539062 208.398438 C 191.703125 208.753906 191.886719 209.101562 192.089844 209.441406 C 192.292969 209.78125 192.511719 210.105469 192.75 210.421875 C 192.988281 210.734375 193.242188 211.035156 193.511719 211.324219 C 193.78125 211.613281 194.0625 211.882812 194.363281 212.140625 C 194.660156 212.398438 194.972656 212.640625 195.296875 212.863281 C 195.621094 213.085938 195.957031 213.292969 196.304688 213.480469 C 196.652344 213.667969 197.007812 213.835938 197.371094 213.984375 C 197.734375 214.136719 198.109375 214.265625 198.484375 214.375 C 198.863281 214.484375 199.246094 214.574219 199.636719 214.644531 C 200.023438 214.710938 200.414062 214.761719 200.808594 214.789062 C 201.203125 214.8125 201.59375 214.820312 201.988281 214.804688 C 202.382812 214.789062 202.773438 214.753906 203.164062 214.695312 C 203.554688 214.640625 203.941406 214.5625 204.320312 214.460938 C 204.703125 214.363281 205.078125 214.246094 205.449219 214.105469 C 205.816406 213.96875 206.175781 213.808594 206.53125 213.632812 C 206.882812 213.457031 207.222656 213.257812 207.554688 213.046875 C 207.886719 212.832031 208.203125 212.601562 208.511719 212.351562 C 208.816406 212.105469 209.109375 211.839844 209.386719 211.5625 C 209.664062 211.28125 209.925781 210.988281 210.171875 210.679688 C 210.417969 210.375 210.648438 210.054688 210.863281 209.722656 C 211.074219 209.390625 211.269531 209.046875 211.445312 208.695312 C 211.617188 208.339844 211.773438 207.980469 211.914062 207.609375 C 212.050781 207.242188 212.164062 206.863281 212.261719 206.480469 C 212.359375 206.101562 212.433594 205.714844 212.492188 205.324219 C 212.546875 204.933594 212.578125 204.542969 212.59375 204.148438 C 212.605469 203.753906 212.597656 203.359375 212.570312 202.96875 C 212.539062 202.574219 212.492188 202.183594 212.421875 201.796875 C 212.347656 201.40625 212.257812 201.023438 212.148438 200.648438 C 212.035156 200.269531 211.902344 199.898438 211.75 199.535156 C 211.601562 199.171875 211.429688 198.816406 211.238281 198.46875 C 211.050781 198.125 210.84375 197.789062 210.617188 197.464844 C 210.390625 197.144531 210.152344 196.832031 209.890625 196.535156 C 209.632812 196.238281 209.359375 195.953125 209.070312 195.6875 C 208.78125 195.417969 208.480469 195.167969 208.164062 194.929688 C 207.847656 194.695312 207.519531 194.476562 207.179688 194.277344 C 206.839844 194.074219 206.492188 193.894531 206.132812 193.730469 C 205.773438 193.566406 205.40625 193.421875 205.035156 193.300781 C 204.660156 193.175781 204.28125 193.070312 203.894531 192.988281 C 203.507812 192.90625 203.121094 192.84375 202.730469 192.800781 C 202.335938 192.757812 201.945312 192.738281 201.550781 192.738281 Z M 198.910156 147.488281 C 199.175781 147.488281 199.4375 147.515625 199.695312 147.566406 C 199.957031 147.617188 200.207031 147.691406 200.453125 147.792969 C 200.695312 147.894531 200.925781 148.019531 201.148438 148.164062 C 201.367188 148.3125 201.570312 148.480469 201.757812 148.667969 C 201.945312 148.851562 202.109375 149.054688 202.257812 149.277344 C 202.402344 149.496094 202.527344 149.726562 202.628906 149.972656 C 202.730469 150.214844 202.804688 150.46875 202.859375 150.726562 C 202.910156 150.984375 202.933594 151.246094 202.933594 151.511719 C 202.933594 151.777344 202.910156 152.039062 202.859375 152.296875 C 202.804688 152.554688 202.730469 152.808594 202.628906 153.050781 C 202.527344 153.296875 202.402344 153.527344 202.257812 153.746094 C 202.109375 153.964844 201.945312 154.167969 201.757812 154.355469 C 201.570312 154.542969 201.367188 154.710938 201.148438 154.855469 C 200.925781 155.003906 200.695312 155.128906 200.453125 155.230469 C 200.207031 155.328125 199.957031 155.40625 199.695312 155.457031 C 199.4375 155.507812 199.175781 155.535156 198.910156 155.535156 C 198.648438 155.535156 198.386719 155.507812 198.125 155.457031 C 197.867188 155.40625 197.617188 155.328125 197.371094 155.230469 C 197.128906 155.128906 196.894531 155.003906 196.675781 154.855469 C 196.457031 154.710938 196.253906 154.542969 196.066406 154.355469 C 195.878906 154.167969 195.714844 153.964844 195.566406 153.746094 C 195.417969 153.527344 195.296875 153.296875 195.195312 153.050781 C 195.09375 152.808594 195.015625 152.554688 194.964844 152.296875 C 194.914062 152.039062 194.886719 151.777344 194.886719 151.511719 C 194.886719 151.246094 194.914062 150.984375 194.964844 150.726562 C 195.015625 150.46875 195.09375 150.214844 195.195312 149.972656 C 195.296875 149.726562 195.417969 149.496094 195.566406 149.277344 C 195.714844 149.054688 195.878906 148.851562 196.066406 148.667969 C 196.253906 148.480469 196.457031 148.3125 196.675781 148.164062 C 196.894531 148.019531 197.128906 147.894531 197.371094 147.792969 C 197.617188 147.691406 197.867188 147.617188 198.125 147.566406 C 198.386719 147.515625 198.648438 147.488281 198.910156 147.488281 Z M 195.394531 122.515625 C 195.394531 122.78125 195.371094 123.042969 195.320312 123.300781 C 195.269531 123.5625 195.191406 123.8125 195.089844 124.058594 C 194.988281 124.300781 194.867188 124.535156 194.71875 124.753906 C 194.574219 124.972656 194.40625 125.175781 194.21875 125.363281 C 194.035156 125.550781 193.832031 125.71875 193.609375 125.867188 C 193.390625 126.011719 193.160156 126.136719 192.914062 126.238281 C 192.671875 126.339844 192.421875 126.417969 192.160156 126.46875 C 191.902344 126.519531 191.640625 126.546875 191.375 126.546875 C 191.113281 126.546875 190.851562 126.523438 190.589844 126.46875 C 190.332031 126.417969 190.078125 126.34375 189.835938 126.242188 C 189.589844 126.140625 189.359375 126.015625 189.140625 125.871094 C 188.917969 125.722656 188.714844 125.558594 188.527344 125.371094 C 188.339844 125.183594 188.175781 124.980469 188.027344 124.761719 C 187.878906 124.542969 187.757812 124.308594 187.65625 124.066406 C 187.554688 123.820312 187.476562 123.570312 187.425781 123.3125 C 187.375 123.050781 187.347656 122.789062 187.347656 122.527344 C 187.347656 122.261719 187.371094 122 187.425781 121.742188 C 187.476562 121.480469 187.550781 121.230469 187.652344 120.984375 C 187.753906 120.742188 187.878906 120.507812 188.023438 120.289062 C 188.171875 120.070312 188.339844 119.867188 188.523438 119.679688 C 188.710938 119.492188 188.914062 119.324219 189.136719 119.179688 C 189.355469 119.03125 189.585938 118.90625 189.832031 118.804688 C 190.074219 118.703125 190.328125 118.628906 190.585938 118.578125 C 190.84375 118.523438 191.105469 118.5 191.371094 118.5 C 191.636719 118.5 191.894531 118.523438 192.15625 118.578125 C 192.414062 118.628906 192.664062 118.703125 192.910156 118.804688 C 193.152344 118.90625 193.386719 119.03125 193.605469 119.175781 C 193.824219 119.324219 194.027344 119.488281 194.214844 119.675781 C 194.402344 119.863281 194.566406 120.066406 194.714844 120.285156 C 194.859375 120.503906 194.984375 120.734375 195.085938 120.980469 C 195.1875 121.222656 195.265625 121.472656 195.316406 121.730469 C 195.367188 121.992188 195.394531 122.253906 195.394531 122.515625 Z M 188.988281 74.683594 C 189.25 74.683594 189.511719 74.707031 189.769531 74.761719 C 190.027344 74.8125 190.28125 74.886719 190.523438 74.988281 C 190.765625 75.089844 191 75.214844 191.21875 75.359375 C 191.4375 75.507812 191.640625 75.671875 191.828125 75.859375 C 192.011719 76.046875 192.179688 76.25 192.328125 76.46875 C 192.472656 76.6875 192.597656 76.917969 192.699219 77.164062 C 192.796875 77.40625 192.875 77.65625 192.925781 77.914062 C 192.976562 78.175781 193.003906 78.4375 193.003906 78.699219 C 193.003906 78.964844 192.976562 79.222656 192.925781 79.484375 C 192.875 79.742188 192.796875 79.992188 192.699219 80.238281 C 192.597656 80.480469 192.472656 80.710938 192.324219 80.929688 C 192.179688 81.148438 192.011719 81.351562 191.828125 81.539062 C 191.640625 81.726562 191.4375 81.894531 191.21875 82.039062 C 191 82.1875 190.765625 82.308594 190.523438 82.410156 C 190.28125 82.511719 190.027344 82.585938 189.769531 82.640625 C 189.511719 82.691406 189.25 82.714844 188.988281 82.714844 C 188.722656 82.714844 188.460938 82.691406 188.203125 82.640625 C 187.945312 82.585938 187.691406 82.511719 187.449219 82.410156 C 187.207031 82.308594 186.972656 82.1875 186.753906 82.039062 C 186.535156 81.894531 186.332031 81.726562 186.144531 81.539062 C 185.960938 81.351562 185.792969 81.148438 185.648438 80.929688 C 185.5 80.710938 185.375 80.480469 185.277344 80.238281 C 185.175781 79.992188 185.097656 79.742188 185.046875 79.484375 C 184.996094 79.222656 184.96875 78.964844 184.96875 78.699219 C 184.96875 78.433594 184.992188 78.171875 185.042969 77.914062 C 185.09375 77.65625 185.171875 77.402344 185.273438 77.15625 C 185.371094 76.914062 185.496094 76.679688 185.640625 76.460938 C 185.789062 76.242188 185.953125 76.039062 186.140625 75.851562 C 186.328125 75.664062 186.53125 75.496094 186.75 75.347656 C 186.96875 75.203125 187.203125 75.078125 187.445312 74.976562 C 187.691406 74.875 187.941406 74.796875 188.199219 74.746094 C 188.460938 74.695312 188.722656 74.667969 188.988281 74.667969 Z M 183.835938 20.320312 C 184.101562 20.320312 184.363281 20.347656 184.625 20.398438 C 184.882812 20.449219 185.132812 20.523438 185.378906 20.625 C 185.625 20.726562 185.855469 20.851562 186.074219 20.996094 C 186.296875 21.144531 186.5 21.308594 186.6875 21.496094 C 186.875 21.683594 187.039062 21.886719 187.1875 22.105469 C 187.335938 22.328125 187.460938 22.558594 187.558594 22.800781 C 187.660156 23.046875 187.738281 23.296875 187.789062 23.558594 C 187.84375 23.816406 187.867188 24.078125 187.867188 24.34375 C 187.867188 24.609375 187.84375 24.871094 187.792969 25.128906 C 187.738281 25.386719 187.664062 25.640625 187.5625 25.882812 C 187.460938 26.128906 187.335938 26.359375 187.191406 26.582031 C 187.042969 26.800781 186.875 27.003906 186.691406 27.191406 C 186.503906 27.378906 186.300781 27.542969 186.078125 27.691406 C 185.859375 27.839844 185.628906 27.960938 185.382812 28.0625 C 185.140625 28.164062 184.886719 28.242188 184.628906 28.292969 C 184.367188 28.34375 184.105469 28.371094 183.84375 28.371094 C 183.578125 28.367188 183.316406 28.34375 183.054688 28.292969 C 182.796875 28.238281 182.546875 28.164062 182.300781 28.0625 C 182.058594 27.960938 181.824219 27.835938 181.605469 27.6875 C 181.386719 27.542969 181.183594 27.375 180.996094 27.1875 C 180.808594 27 180.644531 26.796875 180.496094 26.578125 C 180.347656 26.355469 180.226562 26.125 180.125 25.878906 C 180.023438 25.636719 179.949219 25.382812 179.898438 25.125 C 179.847656 24.863281 179.820312 24.601562 179.820312 24.339844 C 179.820312 24.074219 179.847656 23.8125 179.898438 23.554688 C 179.949219 23.296875 180.027344 23.046875 180.128906 22.800781 C 180.230469 22.558594 180.351562 22.328125 180.5 22.109375 C 180.644531 21.890625 180.8125 21.6875 181 21.5 C 181.1875 21.3125 181.386719 21.148438 181.609375 21 C 181.828125 20.855469 182.058594 20.730469 182.300781 20.628906 C 182.542969 20.527344 182.796875 20.453125 183.054688 20.398438 C 183.3125 20.347656 183.574219 20.324219 183.835938 20.320312 Z M 116.640625 189.238281 C 115.402344 191.394531 113.96875 193.417969 112.34375 195.300781 C 110.714844 197.183594 108.921875 198.894531 106.964844 200.433594 C 105.007812 201.972656 102.921875 203.308594 100.707031 204.441406 C 98.492188 205.578125 96.191406 206.492188 93.796875 207.179688 C 83.835938 209.355469 72.878906 205.902344 61.242188 196.898438 C 60.757812 196.519531 60.207031 196.285156 59.597656 196.195312 C 57.621094 195.859375 55.691406 195.355469 53.804688 194.679688 C 51.921875 194 50.109375 193.160156 48.375 192.160156 C 46.640625 191.15625 45.007812 190.011719 43.476562 188.714844 C 41.949219 187.421875 40.542969 186.003906 39.269531 184.460938 C 38.34375 183.007812 37.578125 181.480469 36.976562 179.867188 C 36.375 178.257812 35.945312 176.601562 35.691406 174.898438 C 35.433594 173.199219 35.359375 171.488281 35.464844 169.769531 C 35.566406 168.054688 35.847656 166.367188 36.308594 164.707031 C 36.394531 164.296875 36.40625 163.882812 36.347656 163.464844 C 36.285156 163.046875 36.152344 162.65625 35.949219 162.285156 C 35.746094 161.917969 35.484375 161.59375 35.167969 161.320312 C 34.847656 161.042969 34.492188 160.832031 34.097656 160.683594 C 33.980469 160.636719 21.683594 155.914062 19.039062 146.347656 C 18.773438 144.9375 18.664062 143.515625 18.707031 142.082031 C 18.75 140.648438 18.941406 139.234375 19.289062 137.839844 C 19.636719 136.449219 20.128906 135.109375 20.765625 133.824219 C 21.402344 132.535156 22.167969 131.332031 23.0625 130.210938 C 26.65625 132.59375 30.507812 134.441406 34.613281 135.753906 C 38.722656 137.070312 42.929688 137.800781 47.238281 137.949219 L 47.371094 137.949219 C 47.839844 137.957031 48.289062 137.875 48.722656 137.707031 C 49.15625 137.535156 49.539062 137.285156 49.875 136.964844 C 50.210938 136.640625 50.472656 136.265625 50.660156 135.835938 C 50.84375 135.410156 50.941406 134.960938 50.949219 134.496094 C 50.957031 134.03125 50.878906 133.578125 50.707031 133.144531 C 50.535156 132.710938 50.289062 132.328125 49.964844 131.992188 C 49.640625 131.65625 49.265625 131.394531 48.839844 131.207031 C 48.410156 131.019531 47.964844 130.921875 47.5 130.914062 C 43.597656 130.714844 39.804688 129.976562 36.113281 128.699219 C 32.421875 127.421875 28.980469 125.65625 25.789062 123.402344 C 25.582031 122.824219 25.242188 122.335938 24.769531 121.9375 C 24.503906 121.75 24.214844 121.605469 23.90625 121.503906 C 22.785156 120.226562 21.910156 118.796875 21.28125 117.21875 C 20.65625 115.640625 20.308594 114 20.246094 112.300781 C 19.488281 95.300781 28.4375 93.929688 28.757812 93.886719 C 29.046875 93.859375 29.328125 93.796875 29.601562 93.699219 C 29.875 93.601562 30.132812 93.472656 30.375 93.3125 C 30.617188 93.152344 30.835938 92.964844 31.03125 92.75 C 31.226562 92.535156 31.390625 92.300781 31.53125 92.042969 C 31.667969 91.789062 31.769531 91.519531 31.839844 91.238281 C 31.910156 90.957031 31.945312 90.667969 31.945312 90.378906 C 31.945312 90.089844 31.910156 89.804688 31.835938 89.523438 C 31.765625 89.242188 31.660156 88.972656 31.523438 88.714844 C 30.917969 87.53125 30.429688 86.296875 30.066406 85.015625 C 29.703125 83.734375 29.46875 82.429688 29.363281 81.101562 C 29.253906 79.773438 29.277344 78.449219 29.433594 77.125 C 29.585938 75.804688 29.871094 74.507812 30.277344 73.242188 C 31.042969 71.835938 31.949219 70.53125 33.007812 69.332031 C 34.0625 68.132812 35.238281 67.066406 36.535156 66.128906 C 37.832031 65.195312 39.21875 64.417969 40.691406 63.796875 C 42.164062 63.171875 43.6875 62.722656 45.261719 62.441406 C 47.347656 61.621094 49.503906 61.046875 51.722656 60.722656 C 53.941406 60.398438 56.167969 60.328125 58.40625 60.523438 C 60.640625 60.714844 62.824219 61.15625 64.957031 61.855469 C 67.089844 62.554688 69.113281 63.484375 71.027344 64.652344 C 72.394531 65.722656 73.625 66.929688 74.726562 68.273438 C 75.824219 69.617188 76.765625 71.0625 77.546875 72.613281 C 78.324219 74.164062 78.929688 75.78125 79.351562 77.464844 C 79.777344 79.144531 80.011719 80.855469 80.058594 82.589844 C 80.066406 83.058594 80.167969 83.507812 80.355469 83.9375 C 80.546875 84.367188 80.816406 84.742188 81.160156 85.0625 C 81.503906 85.382812 81.894531 85.621094 82.335938 85.78125 C 82.78125 85.941406 83.234375 86.007812 83.703125 85.980469 C 84.171875 85.960938 84.613281 85.855469 85.039062 85.664062 C 85.460938 85.46875 85.832031 85.199219 86.148438 84.859375 C 86.46875 84.515625 86.707031 84.128906 86.871094 83.691406 C 87.03125 83.253906 87.105469 82.800781 87.085938 82.335938 C 87.035156 80.0625 86.726562 77.828125 86.167969 75.625 C 85.609375 73.421875 84.8125 71.308594 83.777344 69.285156 C 82.742188 67.261719 81.496094 65.378906 80.035156 63.636719 C 78.574219 61.894531 76.941406 60.335938 75.128906 58.960938 C 73.449219 57.828125 71.675781 56.867188 69.8125 56.074219 C 67.949219 55.277344 66.027344 54.667969 64.050781 54.238281 C 62.070312 53.808594 60.066406 53.574219 58.042969 53.527344 C 56.015625 53.480469 54.003906 53.625 52.007812 53.960938 C 51.207031 52.441406 50.679688 50.835938 50.425781 49.140625 C 50.167969 47.445312 50.199219 45.753906 50.515625 44.070312 C 50.828125 43.066406 51.246094 42.109375 51.765625 41.195312 C 52.28125 40.28125 52.890625 39.429688 53.589844 38.648438 C 54.289062 37.863281 55.0625 37.160156 55.914062 36.542969 C 56.761719 35.921875 57.667969 35.398438 58.625 34.972656 C 73.808594 26.632812 87.417969 41.347656 87.988281 42.007812 C 88.300781 42.355469 88.667969 42.628906 89.089844 42.828125 C 89.511719 43.03125 89.953125 43.144531 90.421875 43.167969 C 90.886719 43.191406 91.339844 43.125 91.78125 42.96875 C 92.21875 42.8125 92.613281 42.578125 92.960938 42.265625 C 93.304688 41.953125 93.582031 41.589844 93.78125 41.167969 C 93.984375 40.746094 94.09375 40.300781 94.121094 39.835938 C 94.144531 39.371094 94.078125 38.917969 93.921875 38.476562 C 93.769531 38.035156 93.535156 37.644531 93.222656 37.296875 C 90.714844 34.601562 87.882812 32.316406 84.71875 30.4375 C 81.554688 28.558594 78.1875 27.167969 74.621094 26.257812 C 80.257812 22.457031 86.398438 19.832031 93.039062 18.378906 C 95.082031 18.070312 97.136719 17.949219 99.203125 18.019531 C 101.265625 18.089844 103.308594 18.347656 105.324219 18.792969 C 107.34375 19.242188 109.304688 19.871094 111.203125 20.679688 C 113.105469 21.488281 114.917969 22.464844 116.640625 23.605469 Z M 201.550781 207.8125 C 201.285156 207.816406 201.023438 207.789062 200.765625 207.738281 C 200.503906 207.6875 200.253906 207.609375 200.007812 207.511719 C 199.765625 207.410156 199.53125 207.285156 199.3125 207.140625 C 199.089844 206.992188 198.886719 206.824219 198.699219 206.640625 C 198.515625 206.453125 198.347656 206.25 198.199219 206.027344 C 198.050781 205.808594 197.929688 205.578125 197.828125 205.332031 C 197.726562 205.089844 197.648438 204.835938 197.597656 204.578125 C 197.546875 204.320312 197.519531 204.058594 197.519531 203.792969 C 197.519531 203.527344 197.542969 203.265625 197.597656 203.007812 C 197.648438 202.746094 197.722656 202.496094 197.824219 202.25 C 197.925781 202.007812 198.050781 201.773438 198.195312 201.554688 C 198.34375 201.335938 198.511719 201.132812 198.699219 200.945312 C 198.882812 200.757812 199.089844 200.589844 199.308594 200.445312 C 199.527344 200.296875 199.757812 200.171875 200.003906 200.074219 C 200.25 199.972656 200.5 199.894531 200.757812 199.84375 C 201.019531 199.792969 201.28125 199.765625 201.546875 199.765625 C 201.808594 199.765625 202.070312 199.792969 202.332031 199.84375 C 202.589844 199.894531 202.839844 199.972656 203.085938 200.074219 C 203.328125 200.175781 203.5625 200.300781 203.78125 200.445312 C 204 200.59375 204.203125 200.761719 204.390625 200.949219 C 204.578125 201.136719 204.746094 201.339844 204.890625 201.558594 C 205.039062 201.78125 205.160156 202.011719 205.261719 202.257812 C 205.363281 202.5 205.4375 202.753906 205.492188 203.011719 C 205.542969 203.269531 205.566406 203.53125 205.566406 203.796875 C 205.566406 204.0625 205.539062 204.320312 205.488281 204.582031 C 205.4375 204.839844 205.359375 205.089844 205.257812 205.332031 C 205.15625 205.578125 205.035156 205.808594 204.886719 206.027344 C 204.742188 206.246094 204.574219 206.449219 204.386719 206.636719 C 204.203125 206.820312 204 206.988281 203.78125 207.136719 C 203.558594 207.28125 203.328125 207.40625 203.085938 207.507812 C 202.84375 207.609375 202.589844 207.683594 202.332031 207.734375 C 202.074219 207.789062 201.8125 207.8125 201.550781 207.8125 Z M 201.550781 207.8125 " fill-opacity="1" fill-rule="nonzero"/></svg>