<svg xmlns="http://www.w3.org/2000/svg" xmlns:xlink="http://www.w3.org/1999/xlink" width="300" zoomAndPan="magnify" viewBox="0 0 224.87999 225" height="300" preserveAspectRatio="xMidYMid meet" version="1.0"><defs><clipPath id="395aae99be"><path d="M 134 21 L 214.933594 21 L 214.933594 102 L 134 102 Z M 134 21 " clip-rule="nonzero"/></clipPath></defs><path fill="#063662" d="M 138.566406 25.148438 L 131.332031 37.066406 C 124.558594 33.183594 117.859375 29.183594 110.972656 25.535156 C 109.617188 24.816406 107.015625 24.742188 105.871094 25.582031 C 83.714844 41.796875 59.167969 50.265625 31.542969 49.152344 C 31.09375 49.132812 30.636719 49.242188 29.988281 49.3125 C 29.808594 49.804688 29.429688 50.34375 29.421875 50.886719 C 28.90625 82.933594 32.214844 114.289062 46.921875 143.421875 C 59.386719 168.109375 78.570312 185.617188 104.136719 196.199219 C 107.199219 197.46875 109.8125 197.460938 112.875 196.144531 C 147.398438 181.292969 169.132812 155.269531 180.007812 119.683594 C 180.410156 118.371094 180.808594 117.058594 181.269531 115.550781 C 183.492188 115.371094 185.773438 115.230469 188.042969 114.992188 C 190.152344 114.773438 192.246094 114.449219 194.890625 114.101562 C 191.953125 126.484375 187.710938 137.847656 182.164062 148.734375 C 166.875 178.746094 143.164062 199.496094 112.121094 212.035156 C 109.996094 212.894531 106.9375 212.855469 104.78125 212.019531 C 63.511719 196 38.144531 165.476562 25.324219 123.84375 C 16.792969 96.148438 14.789062 67.605469 15.238281 38.8125 C 15.246094 38.375 15.410156 37.941406 15.542969 37.347656 C 22.871094 36.964844 30.171875 36.707031 37.453125 36.179688 C 62.117188 34.390625 84.21875 25.621094 104.003906 11.023438 C 107.308594 8.582031 109.433594 8.585938 112.804688 10.628906 C 121.15625 15.683594 129.8125 20.257812 138.566406 25.148438 Z M 138.566406 25.148438 " fill-opacity="1" fill-rule="nonzero"/><path fill="#61a4d7" d="M 124.25 104.519531 C 123.796875 104.488281 123.339844 104.472656 122.785156 104.445312 C 122.757812 103.917969 122.71875 103.464844 122.707031 103.011719 C 122.578125 98.523438 122.628906 94.023438 122.285156 89.550781 C 121.882812 84.285156 116.707031 79.320312 111.453125 79.058594 C 107.480469 78.863281 103.492188 79.007812 99.515625 78.957031 C 93.757812 78.886719 87.484375 84.308594 87.5 91.367188 C 87.503906 93.824219 87.425781 96.28125 87.40625 98.738281 C 87.386719 100.628906 87.402344 102.515625 87.402344 104.398438 C 86.203125 104.519531 85.316406 104.5625 84.445312 104.703125 C 82.183594 105.066406 79.589844 107.648438 79.578125 109.78125 C 79.515625 119.054688 79.511719 128.332031 79.5625 137.609375 C 79.578125 140.199219 82.421875 142.832031 85.023438 142.835938 C 98.285156 142.855469 111.546875 142.855469 124.804688 142.828125 C 127.773438 142.820312 130.433594 140.28125 130.460938 137.285156 C 130.546875 128.476562 130.558594 119.664062 130.496094 110.851562 C 130.464844 107.183594 127.941406 104.777344 124.25 104.519531 Z M 108.855469 122.023438 C 107.933594 122.96875 107.652344 123.917969 107.675781 125.171875 C 107.714844 127.667969 107.679688 130.167969 107.570312 132.667969 C 107.503906 134.199219 107.132812 134.453125 105.582031 134.484375 C 102.566406 134.546875 102.414062 134.40625 102.363281 131.421875 C 102.34375 130.320312 102.359375 129.21875 102.359375 128.117188 L 102.328125 128.117188 C 102.328125 127.394531 102.308594 126.675781 102.332031 125.953125 C 102.386719 124.394531 102.28125 123.082031 100.96875 121.769531 C 98.867188 119.667969 99.3125 116.375 101.542969 114.410156 C 103.617188 112.578125 106.804688 112.699219 108.820312 114.675781 C 110.789062 116.613281 110.886719 119.945312 108.855469 122.023438 Z M 114.023438 104.421875 L 95.742188 104.421875 C 95.902344 99.769531 95.957031 95.207031 96.265625 90.664062 C 96.398438 88.695312 97.78125 87.539062 99.800781 87.503906 C 103.4375 87.441406 107.082031 87.519531 110.71875 87.652344 C 112.308594 87.710938 113.425781 88.75 113.683594 90.3125 C 113.910156 91.683594 113.988281 93.089844 114.011719 94.484375 C 114.054688 97.742188 114.023438 101 114.023438 104.421875 Z M 114.023438 104.421875 " fill-opacity="1" fill-rule="nonzero"/><g clip-path="url(#395aae99be)"><path fill="#61a4d7" d="M 174.984375 21.535156 C 152.839844 21.535156 134.886719 39.488281 134.886719 61.632812 C 134.886719 83.78125 152.839844 101.734375 174.984375 101.734375 C 197.132812 101.734375 215.085938 83.78125 215.085938 61.632812 C 215.085938 39.488281 197.132812 21.535156 174.984375 21.535156 Z M 198.027344 51.515625 C 197.71875 51.929688 197.34375 52.300781 196.976562 52.667969 C 188.84375 60.808594 180.707031 68.945312 172.566406 77.082031 C 169.707031 79.941406 167.335938 79.949219 164.496094 77.109375 C 160.46875 73.089844 156.449219 69.066406 152.425781 65.042969 C 151.089844 63.703125 150.613281 62.101562 151.136719 60.273438 C 151.652344 58.488281 152.902344 57.40625 154.699219 57.027344 C 156.472656 56.652344 157.921875 57.332031 159.164062 58.574219 C 161.921875 61.34375 164.6875 64.105469 167.460938 66.863281 C 167.792969 67.195312 168.140625 67.511719 168.710938 68.054688 C 169.03125 67.613281 169.265625 67.183594 169.601562 66.847656 C 176.589844 59.839844 183.589844 52.832031 190.59375 45.832031 C 191.574219 44.851562 192.640625 44.089844 194.085938 44.039062 C 196.046875 43.972656 197.5625 44.757812 198.46875 46.503906 C 199.367188 48.242188 199.203125 49.941406 198.027344 51.515625 Z M 198.027344 51.515625 " fill-opacity="1" fill-rule="nonzero"/></g></svg>